<svg xmlns="http://www.w3.org/2000/svg" version="1.1" xmlns:xlink="http://www.w3.org/1999/xlink" xmlns:svgjs="http://svgjs.dev/svgjs" width="1500" height="818" viewBox="0 0 1500 818"><g transform="matrix(1,0,0,1,-0.9090909090909918,-1.0965583589847938)"><svg viewBox="0 0 396 216" data-background-color="#2576cd" preserveAspectRatio="xMidYMid meet" height="818" width="1500" xmlns="http://www.w3.org/2000/svg" xmlns:xlink="http://www.w3.org/1999/xlink"><g id="tight-bounds" transform="matrix(1,0,0,1,0.2400000000000091,0.2895557524947634)"><svg viewBox="0 0 395.52 215.42088849501047" height="215.42088849501047" width="395.52"><g><svg viewBox="0 0 395.52 215.42088849501047" height="215.42088849501047" width="395.52"><g transform="matrix(1,0,0,1,0,133.13875134734536)"><svg viewBox="0 0 395.52 82.28213714766511" height="82.28213714766511" width="395.52"><g id="textblocktransform"><svg viewBox="0 0 395.52 82.28213714766511" height="82.28213714766511" width="395.52" id="textblock"><g><svg viewBox="0 0 395.52 82.28213714766511" height="82.28213714766511" width="395.52"><g transform="matrix(1,0,0,1,0,0)"><svg width="395.52" viewBox="1.61 -36.84 232.10999999999999 48.29" height="82.28213714766511" data-palette-color="#ffeecb"><path d="M32.45-2.1L32.45 0.15Q32.13 0.17 31.2 0.49 30.27 0.81 29.15 0.81L29.15 0.81Q26.59 0.81 25.09-0.05 23.58-0.9 22.77-2.31 21.95-3.71 21.47-5.4 21-7.08 20.51-8.75 20.02-10.42 19.17-11.83 18.31-13.23 16.77-14.09 15.23-14.94 12.6-14.94L12.6-14.94Q11.82-14.94 11.12-14.89 10.42-14.84 10.35-14.84L10.35-14.84 10.35-3.44Q10.35-3.08 10.61-2.73 10.86-2.39 11.4-2.34L11.4-2.34 14.04-2.15 14.04 0 1.61 0 1.61-2.15 4.2-2.34Q4.74-2.39 5.02-2.73 5.3-3.08 5.3-3.44L5.3-3.44 5.3-30.1Q5.3-30.47 5.02-30.82 4.74-31.18 4.2-31.2L4.2-31.2 1.61-31.4 1.61-33.54 14.65-33.54Q20.34-33.54 23.62-31.58 26.9-29.61 26.9-24.66L26.9-24.66Q26.9-22.05 25.73-20.37 24.56-18.7 22.69-17.75 20.83-16.8 18.7-16.31L18.7-16.31Q21.02-15.75 22.33-14.71 23.63-13.67 24.27-12.35 24.9-11.04 25.22-9.62 25.54-8.2 25.85-6.86 26.17-5.52 26.82-4.44 27.47-3.37 28.78-2.73 30.1-2.1 32.45-2.1L32.45-2.1ZM21.46-24.44L21.46-24.44Q21.46-27.64 19.42-29.37 17.38-31.1 12.65-31.1L12.65-31.1 10.35-31.1 10.35-17.41Q10.47-17.41 11.36-17.38 12.26-17.36 12.84-17.36L12.84-17.36Q17.02-17.36 19.24-18.9 21.46-20.43 21.46-24.44ZM57.05-1.95L57.05 0 49.66 0 49-2.95Q49-2.95 48.25-2.42 47.51-1.88 46.29-1.17 45.07-0.46 43.59 0.07 42.11 0.61 40.65 0.61L40.65 0.61Q37.94 0.61 36.04-1.2 34.15-3 34.15-6.15L34.15-6.15Q34.15-7.54 34.65-8.74 35.15-9.94 36.66-11.02 38.16-12.11 41.12-13.15 44.09-14.18 49-15.26L49-15.26 49-17.41Q49-22.34 44.33-22.34L44.33-22.34Q43.04-22.34 42.1-22.09 41.16-21.85 40.79-21.7L40.79-21.7 40.79-17.36 37.16-17.36Q36.47-17.36 35.89-17.61 35.3-17.87 35.3-18.8L35.3-18.8Q35.3-20.85 36.86-22.16 38.43-23.46 40.83-24.08 43.23-24.71 45.7-24.71L45.7-24.71Q48.8-24.71 50.51-23.74 52.22-22.78 52.9-21.08 53.59-19.38 53.59-17.21L53.59-17.21 53.59-3.2Q53.59-2.73 53.89-2.44 54.2-2.15 54.64-2.1L54.64-2.1 57.05-1.95ZM49-4.71L49-4.71 49-13.35Q45.63-12.52 43.64-11.68 41.65-10.84 40.67-10 39.69-9.16 39.39-8.29 39.08-7.42 39.08-6.49L39.08-6.49Q39.08-4.96 40.07-3.65 41.06-2.34 42.84-2.34L42.84-2.34Q43.85-2.34 44.92-2.7 45.99-3.05 46.92-3.53 47.85-4 48.42-4.36 49-4.71 49-4.71ZM83.27-23.19L83.27-20.75 78.29-20.75Q78.85-19.85 79.24-18.77 79.63-17.7 79.63-16.26L79.63-16.26Q79.63-13.77 78.27-12 76.9-10.23 74.67-9.28 72.43-8.33 69.82-8.33L69.82-8.33Q69.58-8.33 69.33-8.33 69.09-8.33 68.84-8.35L68.84-8.35Q68.53-7.84 68.42-7.25 68.31-6.67 68.31-6.15L68.31-6.15Q68.31-5.69 68.35-5.37 68.4-5.05 68.43-5L68.43-5 69.14-4.93Q70.89-4.76 73.08-4.44 75.26-4.13 77.3-3.42 79.34-2.71 80.66-1.42 81.98-0.12 81.98 2L81.98 2Q81.98 4.37 80.24 6.53 78.51 8.69 75.57 10.07 72.63 11.45 68.99 11.45L68.99 11.45Q64.52 11.45 62.06 9.41 59.59 7.37 59.59 4.35L59.59 4.35Q59.59 2.17 60.88 0.48 62.18-1.22 64.89-1.71L64.89-1.71Q64.62-2.49 64.5-2.83 64.37-3.17 64.37-4L64.37-4Q64.37-4.98 64.97-6.16 65.57-7.35 66.89-8.69L66.89-8.69Q64.4-9.25 62.54-11.22 60.69-13.18 60.69-16.21L60.69-16.21Q60.69-20.14 63.46-22.42 66.23-24.71 70.72-24.71L70.72-24.71Q72.5-24.71 74.03-24.18 75.56-23.66 76.53-23.19L76.53-23.19 83.27-23.19ZM74.87-16.55L74.87-16.55Q74.87-18.14 74.34-19.53 73.8-20.92 72.77-21.79 71.75-22.66 70.23-22.66L70.23-22.66Q68.13-22.66 66.8-21.03 65.47-19.41 65.47-16.5L65.47-16.5Q65.47-13.99 66.67-12.19 67.87-10.4 70.23-10.4L70.23-10.4Q72.48-10.4 73.68-12.21 74.87-14.01 74.87-16.55ZM77.68 3.34L77.68 3.34Q77.68 1.78 76.59 0.93 75.51 0.07 73.9-0.34 72.29-0.76 70.65-0.94 69.01-1.12 67.89-1.34L67.89-1.34Q65.72-0.56 64.9 0.78 64.08 2.12 64.08 3.34L64.08 3.34Q64.08 4.54 64.78 5.9 65.47 7.25 66.93 8.2 68.38 9.16 70.62 9.16L70.62 9.16Q73.02 9.16 74.58 8.2 76.14 7.25 76.91 5.9 77.68 4.54 77.68 3.34ZM91.37-30.81L91.37-30.81Q91.37-29.98 90.67-26.15L90.67-26.15 89.32-18.7 88.18-18.7 86.83-26.2Q86.52-27.78 86.39-28.85 86.27-29.91 86.27-30.44L86.27-30.44Q86.27-33.5 88.66-33.5L88.66-33.5Q90.1-33.5 90.74-32.6 91.37-31.71 91.37-30.81ZM111.71-7.25L111.71-7.25Q111.71-3.56 109.17-1.48 106.63 0.61 102.16 0.61L102.16 0.61Q99.87 0.61 97.93 0.13 95.99-0.34 95.23-0.66L95.23-0.66 95.23-7.3 97.77-7.3 98.38-3.05Q99.14-2.56 100.25-2.11 101.36-1.66 102.82-1.66L102.82-1.66Q104.97-1.66 106.14-2.86 107.31-4.05 107.31-5.54L107.31-5.54Q107.31-7.52 105.9-8.53 104.48-9.55 101.87-10.79L101.87-10.79 101.21-11.11Q98.48-12.4 97.02-13.81 95.57-15.21 95.57-17.46L95.57-17.46Q95.57-20.8 97.91-22.75 100.26-24.71 104.58-24.71L104.58-24.71Q106.78-24.71 108.5-24.3 110.22-23.9 110.98-23.56L110.98-23.56 110.98-17.65 108.36-17.65 107.97-21.14Q107.44-21.56 106.39-21.92 105.34-22.29 104.16-22.29L104.16-22.29Q102.11-22.29 101.11-21.35 100.11-20.41 100.11-18.95L100.11-18.95Q100.11-17.26 101.32-16.27 102.53-15.28 105.7-13.84L105.7-13.84Q108.32-12.65 110.01-11.17 111.71-9.69 111.71-7.25ZM169.42-16.21L169.42-14.04 166.88-13.79Q166.34-13.77 166.09-13.45 165.83-13.13 165.83-12.74L165.83-12.74 165.83-1.2Q165.83-1.2 164.33-0.7 162.83-0.2 160.43 0.31 158.04 0.81 155.33 0.81L155.33 0.81Q151.16 0.81 147.91-0.63 144.66-2.08 142.43-4.55 140.19-7.03 139.04-10.21 137.88-13.38 137.88-16.85L137.88-16.85Q137.88-22.09 140.06-26.04 142.25-29.98 146.31-32.17 150.38-34.35 155.97-34.35L155.97-34.35Q158.53-34.35 160.7-33.89 162.88-33.42 164.95-32.86L164.95-32.86 165.78-32.64 165.78-24.56 162.78-24.56 161.97-29.05Q161.9-29.49 161.61-29.8 161.31-30.1 160.97-30.25L160.97-30.25Q160.87-30.27 160.68-30.37L160.68-30.37Q159.92-30.71 158.64-31.13 157.36-31.54 155.77-31.54L155.77-31.54Q152.18-31.54 149.42-29.87 146.66-28.2 145.11-24.98 143.56-21.75 143.56-17.09L143.56-17.09Q143.56-9.89 147.04-5.94 150.52-2 156.38-2L156.38-2Q158.04-2 159.32-2.38 160.61-2.76 160.78-2.76L160.78-2.76 160.78-12.74Q160.78-13.13 160.52-13.45 160.26-13.77 159.73-13.79L159.73-13.79 156.38-14.04 156.38-16.21 169.42-16.21ZM189.7-23.95L189.7-18.99 187.75-18.99Q187.29-19.56 186.64-19.96 185.99-20.36 185.07-20.36L185.07-20.36Q183.87-20.36 182.61-19.53 181.35-18.7 180.06-17.26L180.06-17.26 180.06-3.2Q180.06-2.15 181.11-2.1L181.11-2.1 184.41-1.95 184.41 0 171.91 0 171.91-1.9 174.37-2.1Q174.81-2.15 175.12-2.44 175.42-2.73 175.42-3.2L175.42-3.2 175.42-20.56 171.81-20.56 171.81-22.19 178.01-24.1 180.06-24.1 180.06-19.65Q180.79-20.46 181.89-21.66 182.99-22.85 184.24-23.78 185.48-24.71 186.65-24.71L186.65-24.71Q187.43-24.71 188.34-24.46 189.24-24.22 189.7-23.95L189.7-23.95ZM201.1-32.35L201.1-32.35Q201.1-31.08 200.22-30.16 199.35-29.25 198.08-29.25L198.08-29.25Q196.81-29.25 195.89-30.16 194.98-31.08 194.98-32.35L194.98-32.35Q194.98-33.64 195.89-34.52 196.81-35.4 198.08-35.4L198.08-35.4Q199.35-35.4 200.22-34.52 201.1-33.64 201.1-32.35ZM203.67-1.95L203.67 0 191.92 0 191.92-1.95 194.36-2.1Q195.41-2.17 195.41-3.2L195.41-3.2 195.41-21.04 191.97-21.04 191.97-22.8 198.08-24.71 200.05-24.71 200.05-3.2Q200.05-2.73 200.36-2.44 200.66-2.15 201.1-2.1L201.1-2.1 203.67-1.95ZM218.87-1.95L218.87 0 206.72 0 206.72-1.95 209.38-2.1Q209.72-2.1 210.1-2.47 210.48-2.83 210.48-3.15L210.48-3.15 210.48-33.25 206.67-33.25 206.67-34.91 213.06-36.84 215.11-36.84 215.11-3.15Q215.11-2.83 215.48-2.47 215.85-2.1 216.16-2.1L216.16-2.1 218.87-1.95ZM233.72-1.95L233.72 0 221.56 0 221.56-1.95 224.22-2.1Q224.56-2.1 224.94-2.47 225.32-2.83 225.32-3.15L225.32-3.15 225.32-33.25 221.51-33.25 221.51-34.91 227.9-36.84 229.96-36.84 229.96-3.15Q229.96-2.83 230.32-2.47 230.69-2.1 231.01-2.1L231.01-2.1 233.72-1.95Z" opacity="1" transform="matrix(1,0,0,1,0,0)" fill="#ffeecb" class="wordmark-text-0" data-fill-palette-color="primary" id="text-0"></path></svg></g></svg></g></svg></g></svg></g><g transform="matrix(1,0,0,1,154.95854800917795,0)"><svg viewBox="0 0 85.60290398164406 113.71391353807319" height="113.71391353807319" width="85.60290398164406"><g><svg xmlns="http://www.w3.org/2000/svg" xmlns:xlink="http://www.w3.org/1999/xlink" version="1.1" x="8" y="0" viewBox="12.713 0.489 38.574999999999996 63.022000000000006" enable-background="new 0 0 64 64" xml:space="preserve" height="113.71391353807319" width="69.60290398164406" class="icon-icon-0" data-fill-palette-color="accent" id="icon-0"><g fill="#d8a31a" data-fill-palette-color="accent"><path d="M30.955 40.131C40.674 40.131 48.553 32.772 48.553 23.692 48.553 22.958 48.494 22.237 48.395 21.527H13.514C13.413 22.237 13.357 22.958 13.357 23.692 13.356 32.771 21.235 40.131 30.955 40.131" fill="#d8a31a" data-fill-palette-color="accent"></path><path d="M31.792 10.814C31.866 11.896 31.552 12.251 30.792 13.108 30.624 13.296 30.448 13.495 30.265 13.715 28.724 15.561 28.734 17.208 28.744 19.116L28.746 19.628H30.746L30.744 19.106C30.734 17.344 30.728 16.281 31.801 14.997 31.971 14.793 32.135 14.609 32.287 14.435 33.127 13.49 33.92 12.596 33.789 10.677 33.627 8.304 32.113 6.621 30.779 5.137 29.433 3.639 28.273 2.346 28.312 0.532L26.312 0.489C26.255 3.094 27.869 4.89 29.292 6.474 30.519 7.84 31.677 9.13 31.792 10.814" fill="#d8a31a" data-fill-palette-color="accent"></path><path d="M34.666 4.705C34.895 4.905 35.131 5.112 35.244 5.253A9.1 9.1 0 0 1 36.67 7.758C36.998 8.626 37.137 9.314 37.149 10.134 37.159 10.727 37.014 11.328 36.862 11.966 36.665 12.792 36.46 13.647 36.546 14.604L38.538 14.426C38.481 13.794 38.64 13.133 38.808 12.432 38.982 11.703 39.163 10.948 39.15 10.104 39.134 9.05 38.953 8.137 38.543 7.051A11.2 11.2 0 0 0 36.814 4.012C36.587 3.727 36.293 3.47 35.982 3.199 35.703 2.956 35.183 2.502 35.128 2.3 35.128 2.3 35.132 2.311 35.132 2.33L33.132 2.346C33.139 3.372 33.984 4.111 34.666 4.705" fill="#d8a31a" data-fill-palette-color="accent"></path><path d="M22.413 12.154C23.455 13.592 24.144 14.541 24.001 16.194L25.993 16.366C26.2 13.97 25.147 12.518 24.032 10.98L23.897 10.795C22.686 9.12 22.682 6.126 23.38 4.2L21.499 3.518C20.614 5.96 20.598 9.647 22.278 11.968z" fill="#d8a31a" data-fill-palette-color="accent"></path><path d="M45.904 52.743C45.853 52.743 45.806 52.757 45.756 52.758L41.649 41.521H20.26L12.713 62.167 14.592 62.855 18.006 53.515H43.17C41.592 54.454 40.52 56.161 40.52 58.127 40.52 61.096 42.936 63.511 45.905 63.511S51.288 61.096 51.288 58.127 48.873 52.743 45.904 52.743M18.736 51.515L21.658 43.521H40.25L43.172 51.515z" fill="#d8a31a" data-fill-palette-color="accent"></path></g></svg></g></svg></g><g><rect width="154.95854800917795" height="7.420288043141977" y="105.2936254949312" x="240.561451990822" fill="#d8a31a" data-fill-palette-color="accent"></rect><rect width="154.95854800917795" height="7.420288043141977" y="105.2936254949312" x="0" fill="#d8a31a" data-fill-palette-color="accent"></rect><rect width="154.95854800917795" height="7.420288043141977" y="90.45304940864725" x="240.561451990822" fill="#d8a31a" data-fill-palette-color="accent"></rect><rect width="154.95854800917795" height="7.420288043141977" y="90.45304940864725" x="0" fill="#d8a31a" data-fill-palette-color="accent"></rect></g></svg></g><defs></defs></svg><rect width="395.52" height="215.42088849501047" fill="none" stroke="none" visibility="hidden"></rect></g></svg></g></svg>